<?xml version="1.0" encoding="utf-8"?>
<!-- Generator: Adobe Illustrator 16.0.0, SVG Export Plug-In . SVG Version: 6.00 Build 0)  -->
<!DOCTYPE svg PUBLIC "-//W3C//DTD SVG 1.1//EN" "http://www.w3.org/Graphics/SVG/1.1/DTD/svg11.dtd">
<svg version="1.1" xmlns="http://www.w3.org/2000/svg" xmlns:xlink="http://www.w3.org/1999/xlink" x="0px" y="0px" width="300px"
	 height="427.857px" viewBox="0 0 300 427.857" enable-background="new 0 0 300 427.857" xml:space="preserve">
<g id="rojo">
	<path fill="#FF0007" stroke="#000000" stroke-miterlimit="10" d="M236.92,295.735c0.707,23.226-3.994,42.345-19.351,58.635
		c-11.138,11.812-20.328,25.478-30.189,38.468c-3.403,4.485-6.48,6.778-11.214,1.67c-3.192-3.452-7.438-4.298-12.087-4.242
		c-12.579,0.153-25.154,0.067-37.731,0.046c-3.783-0.006-7.816-0.168-10.461,2.917c-5.374,6.268-8.875,4.445-13.229-1.488
		c-13.662-18.629-28.341-36.53-41.553-55.464c-7.694-11.026-4.501-24.906-6.04-37.932c11.208,12.247,21.121,25.205,28.998,39.629
		c5.531,10.127,10.681,20.465,16.042,30.683c2.965,5.65,7.812,9.406,12.742,3.747c8.887-10.204,19.991-9.432,31.596-9.445
		c12.624-0.019,24.731-0.78,34.564,10.06c5.491,6.054,9.701,0.619,12.123-4.772c10.775-23.992,24.555-46.106,41.08-66.54
		C233.444,300.177,234.646,298.618,236.92,295.735z"/>
	<path fill="#FF0007" stroke="#000000" stroke-miterlimit="10" d="M146.463,87.283c-4.416,0.006-8.833,0.006-13.251,0.006
		c-18.638,0-18.668,0.002-20.7-18.182c-1.205-10.797-1.894-21.672-3.613-32.384c-0.888-5.53,1.124-7.357,5.924-8.124
		c20.627-3.292,41.246-3.437,61.894-0.168c4.757,0.754,6.868,2.498,6.066,8.07c-2.136,14.777-3.716,29.647-5.053,44.522
		c-0.431,4.768-2.071,6.488-6.808,6.331C162.777,87.082,154.617,87.279,146.463,87.283z"/>
	<path fill="#FF0007" stroke="#000000" stroke-miterlimit="10" d="M146.569,101.19c6.787-0.002,13.591,0.311,20.351-0.092
		c6.397-0.383,8.999,1.032,7.914,8.365c-2.383,16.088-3.995,32.303-5.452,48.509c-0.471,5.269-2.282,7.681-7.614,8.742
		c-10.826,2.157-21.44,2.029-32.229-0.102c-4.863-0.96-6.685-3.262-7.153-8.096c-1.63-16.873-3.444-33.733-5.663-50.536
		c-0.76-5.742,1.245-7.064,6.439-6.865C130.953,101.414,138.765,101.194,146.569,101.19z"/>
	<path fill="#FF0007" stroke="#000000" stroke-miterlimit="10" d="M245.049,88.366c-15.967-8.73-31.414-15.514-48.155-18.708
		c-3.575-0.683-3.659-3.402-3.332-6.302c0.759-6.751,2.159-13.524,2.016-20.262c-0.228-10.458,4.321-9.229,10.763-5.361
		c12.295,7.382,23.461,16.2,33.769,26.148C246.929,70.464,244.865,78.69,245.049,88.366z"/>
	<path fill="#FF0007" stroke="#000000" stroke-miterlimit="10" d="M46.91,87.163c-1.423-11.201-0.327-20.378,8.949-27.618
		c10.675-8.33,20.688-17.488,32.989-23.536c4.506-2.214,6.637-1.667,6.934,3.947c0.463,8.785,4.408,18.603,1.628,26.014
		c-3.125,8.33-15.38,5.512-23.118,9.077C65.706,79.005,57.004,82.712,46.91,87.163z"/>
	<path fill="#FF0007" stroke="#000000" stroke-miterlimit="10" d="M252.12,213.553c-4.369-21.627-1.747-43.557-2.969-65.908
		C265.066,156.835,264.192,192.415,252.12,213.553z"/>
	<path fill="#FF0007" stroke="#000000" stroke-miterlimit="10" d="M39.489,214.858c-12.038-20.781-12.457-55.725,0-65.61
		C39.489,170.264,39.489,191.442,39.489,214.858z"/>
</g>
<g id="negro">
	<path fill-rule="evenodd" clip-rule="evenodd" d="M145.441,417.682c-30.189,6.377-49.897-7.65-65.134-32.227
		c-7.857-12.673-17.365-24.399-26.857-35.952c-6.335-7.712-9.542-16.055-10.523-25.827c-1.835-18.271-4.366-36.471-6.235-54.736
		c-0.507-4.933-2.65-9.07-4.36-13.473c-2.436-6.267-5.864-12.207-2.334-19.442c1.782-3.651-1.528-7.083-2.805-10.505
		c-7.548-20.212-14.181-40.536-9.149-62.578c0.377-1.652,0.485-3.501,1.323-4.894c13.732-22.798,10.973-48.626,12.469-73.349
		c1.06-17.527,7.704-29.739,20.987-40.672C100.475,4.814,153.324,5.77,207.824,23.837c17.799,5.899,31.482,19.849,44.576,33.374
		c5.14,5.305,5.85,12.135,6.412,18.907c1.014,12.204,1.756,24.432,2.538,36.654c0.862,13.486,1.816,26.54,8.408,39.237
		c9.295,17.897,6.788,37.286,0.791,55.729c-11.813,36.321-17.687,73.715-21.37,111.513c-1.189,12.191-4.33,22.767-12.471,32.432
		c-13.796,16.382-26.913,33.384-39.484,50.728c-8.013,11.054-18.205,15.655-31.366,15.302
		C159.059,417.53,152.246,417.682,145.441,417.682z M54.764,154.604c0,15.643,0.263,31.292-0.136,46.926
		c-0.149,5.799,1.916,9.25,6.507,12.554c47.507,34.198,120.008,34.563,168.048,0.894c5.012-3.511,7.055-7.245,6.979-13.399
		c-0.327-25.162-0.136-50.329-0.136-75.495c0-30.824-1.038-32.181-30.96-40.322c-1.309-0.357-2.762-0.352-3.967-0.91
		c-8.089-3.754-10.423-0.295-11.182,7.621c-2.358,24.693-5.702,49.297-7.806,74.008c-0.742,8.695-4.784,11.078-12.486,12.766
		c-16.267,3.566-32.178,2.969-48.372-0.164c-7.528-1.457-10.891-4.444-11.609-12.477c-2.239-25.042-5.473-49.993-8.037-75.01
		c-0.682-6.659-2.053-9.606-9.973-7.316c-10.5,3.037-20.55,6.831-30.469,11.333c-5.202,2.359-6.638,5.596-6.522,11.042
		C54.983,122.631,54.764,138.62,54.764,154.604z M50.485,224.984c-4.088,4.401-3.707,8.662-3.801,13.088
		c-0.465,21.52,10.52,38.196,22.73,54.267c12.978,17.078,25.409,34.467,34.478,54.006c3.133,6.754,5.651,13.728,14.249,4.669
		c1.646-1.734,5.781-1.457,8.775-1.493c12.24-0.151,24.48-0.021,36.723-0.087c4.166-0.024,8.341,0.081,11.373,3.33
		c4.861,5.201,7.463,3.447,9.873-2.341c7.905-19.008,20.041-35.405,32.468-51.591c8.712-11.348,17.46-22.925,22.671-36.172
		c4.525-11.491,7.922-24.042,1.094-37.925c-6.836,11.329-10.743,23.794-19.223,30.169c-8.561,6.436-21.817,6.367-32.72,10.024
		c-7.846,2.63-13.855,1.078-19.091-4.86c-5.104-5.794-11.162-8.011-19.004-6.754c-4.951,0.796-10.169,0.075-15.259-0.16
		c-3.418-0.157-7.049-0.826-9.404,2.314c-9.827,13.107-22.2,11.456-35.431,6.685c-5.084-1.834-10.472-2.895-15.783-4.002
		c-5.399-1.128-8.943-4.039-11.449-9.008C59.684,241.069,55.073,233.268,50.485,224.984z M236.92,295.735
		c-2.274,2.883-3.476,4.441-4.709,5.97c-16.525,20.434-30.305,42.548-41.08,66.54c-2.422,5.392-6.632,10.826-12.123,4.772
		c-9.833-10.84-21.94-10.078-34.564-10.06c-11.605,0.014-22.709-0.759-31.596,9.445c-4.931,5.659-9.777,1.903-12.742-3.747
		c-5.361-10.218-10.511-20.556-16.042-30.683c-7.877-14.424-17.791-27.382-28.998-39.629c1.539,13.025-1.654,26.905,6.04,37.932
		c13.211,18.934,27.891,36.835,41.553,55.464c4.354,5.934,7.856,7.756,13.229,1.488c2.646-3.085,6.678-2.923,10.461-2.917
		c12.577,0.021,25.152,0.107,37.731-0.046c4.648-0.056,8.895,0.79,12.087,4.242c4.733,5.108,7.811,2.815,11.214-1.67
		c9.861-12.99,19.052-26.656,30.189-38.468C232.926,338.08,237.627,318.961,236.92,295.735z M146.463,87.279
		c8.154,0,16.314-0.197,24.46,0.076c4.736,0.158,6.377-1.563,6.808-6.331c1.337-14.875,2.917-29.745,5.053-44.522
		c0.802-5.572-1.31-7.316-6.066-8.07c-20.647-3.269-41.266-3.124-61.894,0.168c-4.801,0.766-6.813,2.594-5.924,8.124
		c1.72,10.712,2.408,21.587,3.613,32.384c2.031,18.184,2.062,18.182,20.7,18.182C137.629,87.289,142.047,87.289,146.463,87.279z
		 M146.569,101.194c-7.804,0-15.616,0.22-23.407-0.078c-5.194-0.2-7.199,1.123-6.439,6.865c2.219,16.803,4.032,33.663,5.663,50.536
		c0.469,4.834,2.291,7.136,7.153,8.096c10.789,2.131,21.403,2.259,32.229,0.102c5.332-1.062,7.144-3.474,7.614-8.742
		c1.457-16.206,3.069-32.42,5.452-48.509c1.085-7.333-1.517-8.749-7.914-8.365C160.16,101.501,153.355,101.188,146.569,101.194z
		 M245.049,88.366c-0.184-9.676,1.88-17.902-4.94-24.485c-10.308-9.948-21.474-18.766-33.769-26.148
		c-6.441-3.868-10.99-5.097-10.763,5.361c0.144,6.737-1.257,13.511-2.016,20.262c-0.327,2.9-0.243,5.62,3.332,6.302
		C213.635,72.853,229.082,79.636,245.049,88.366z M46.91,87.163c10.094-4.451,18.796-8.158,27.382-12.116
		c7.738-3.565,19.993-0.748,23.118-9.077c2.78-7.412-1.165-17.229-1.628-26.014c-0.297-5.614-2.428-6.161-6.934-3.947
		c-12.301,6.048-22.313,15.207-32.989,23.536C46.583,66.785,45.487,75.962,46.91,87.163z M252.12,213.553
		c12.072-21.138,12.946-56.718-2.969-65.908C250.373,169.996,247.751,191.926,252.12,213.553z M39.489,214.858
		c0-23.417,0-44.595,0-65.61C27.033,159.134,27.452,194.077,39.489,214.858z"/>
</g>
<g id="amarillo">
	<path fill="#FFC407" stroke="#000000" stroke-miterlimit="10" d="M54.764,154.604c0-15.985,0.219-31.973-0.12-47.95
		c-0.116-5.446,1.321-8.683,6.522-11.042c9.919-4.501,19.969-8.295,30.469-11.333c7.919-2.291,9.291,0.657,9.973,7.316
		c2.564,25.017,5.798,49.967,8.037,75.01c0.718,8.032,4.081,11.02,11.609,12.477c16.194,3.133,32.105,3.729,48.372,0.164
		c7.702-1.688,11.744-4.071,12.486-12.766c2.104-24.711,5.447-49.314,7.806-74.008c0.759-7.917,3.093-11.375,11.182-7.621
		c1.205,0.559,2.658,0.553,3.967,0.91c29.922,8.142,30.96,9.499,30.96,40.322c0,25.166-0.191,50.333,0.136,75.495
		c0.075,6.155-1.968,9.888-6.979,13.399c-48.04,33.67-120.541,33.305-168.048-0.894c-4.591-3.304-6.656-6.755-6.507-12.554
		C55.027,185.897,54.764,170.248,54.764,154.604z"/>
	<path fill="#FFC407" stroke="#000000" stroke-miterlimit="10" d="M50.485,224.984c4.587,8.283,9.199,16.085,13.269,24.159
		c2.506,4.969,6.05,7.88,11.449,9.008c5.312,1.107,10.699,2.168,15.783,4.002c13.231,4.771,25.604,6.423,35.431-6.685
		c2.354-3.141,5.986-2.472,9.404-2.314c5.09,0.235,10.308,0.956,15.259,0.16c7.842-1.257,13.899,0.96,19.004,6.754
		c5.235,5.938,11.245,7.49,19.091,4.86c10.902-3.657,24.159-3.589,32.72-10.024c8.479-6.375,12.387-18.84,19.223-30.169
		c6.828,13.883,3.432,26.434-1.094,37.925c-5.211,13.247-13.959,24.824-22.671,36.172c-12.427,16.186-24.563,32.583-32.468,51.591
		c-2.41,5.788-5.012,7.542-9.873,2.341c-3.032-3.249-7.207-3.354-11.373-3.33c-12.243,0.065-24.483-0.064-36.723,0.087
		c-2.995,0.036-7.129-0.241-8.775,1.493c-8.598,9.059-11.116,2.085-14.249-4.669c-9.069-19.539-21.5-36.928-34.478-54.006
		c-12.211-16.07-23.195-32.747-22.73-54.267C46.778,233.646,46.397,229.386,50.485,224.984z"/>
</g>
</svg>
