<?xml version="1.0" encoding="utf-8"?>
<!-- Generator: Adobe Illustrator 16.0.0, SVG Export Plug-In . SVG Version: 6.00 Build 0)  -->
<!DOCTYPE svg PUBLIC "-//W3C//DTD SVG 1.1//EN" "http://www.w3.org/Graphics/SVG/1.1/DTD/svg11.dtd">
<svg version="1.1" xmlns="http://www.w3.org/2000/svg" xmlns:xlink="http://www.w3.org/1999/xlink" x="0px" y="0px"
	 width="221.138px" height="169.106px" viewBox="0 0 221.138 169.106" enable-background="new 0 0 221.138 169.106"
	 xml:space="preserve">
<g id="Capa_2">
	<path fill-rule="evenodd" clip-rule="evenodd" d="M111.556,10.212c21.087,0,42.175,0.033,63.261-0.042
		c2.61-0.009,4.597,0.702,6.492,2.54c10.811,10.484,21.669,20.919,32.635,31.239c2.141,2.015,1.957,3.307,0.144,5.383
		c-32.927,37.687-65.804,75.417-98.634,113.188c-1.978,2.277-3.213,2.982-5.581,0.261c-32.93-37.838-65.948-75.599-99-113.331
		c-1.818-2.075-1.931-3.461,0.101-5.487c10.418-10.39,20.749-20.868,31.013-31.411c1.752-1.799,3.694-2.076,5.961-2.073
		c21.203,0.028,42.406,0.017,63.608,0.017C111.556,10.402,111.556,10.307,111.556,10.212z"/>
</g>
<g id="Capa_3">
	<path fill-rule="evenodd" clip-rule="evenodd" fill="#ED2724" d="M177.388,13.912c6.505,6.097,13.022,12.179,19.509,18.294
		c4.131,3.893,8.148,7.909,12.351,11.722c2.021,1.835,1.901,3.216,0.162,5.206c-18.296,20.933-36.513,41.935-54.765,62.906
		c-13.08,15.029-26.178,30.045-39.276,45.059c-2.938,3.368-2.909,3.313-5.878-0.083c-25.159-28.781-50.339-57.544-75.505-86.319
		c-6.177-7.063-12.295-14.178-18.51-21.208c-1.444-1.633-1.99-3.025-0.222-4.75c10.275-10.031,20.028-20.59,30.616-30.307
		c2.047-0.375,4.116-0.292,6.18-0.292c40.518-0.002,81.036,0,121.553-0.013C174.863,14.126,176.148,14.354,177.388,13.912z"/>
</g>
<g id="Capa_4">
	<path fill-rule="evenodd" clip-rule="evenodd" fill="#585858" d="M177.388,13.912c-1.788,0.619-3.646,0.568-5.497,0.57
		c-41.199,0.043-82.398,0.085-123.597,0.118c-0.807,0-1.615-0.109-2.424-0.168c1.289-0.654,2.691-0.627,4.077-0.628
		c41.441-0.031,82.883-0.056,124.324-0.072C175.31,13.732,176.349,13.85,177.388,13.912z"/>
	<path fill-rule="evenodd" clip-rule="evenodd" fill="#161616" d="M114.942,56.123c-11.061-0.631-22.682-0.447-34.024-3.217
		c-1.333-0.326-2.706-0.734-3.883-1.412c-10.066-5.796-10.492-14.582-1.119-21.456c3.505-2.57,7.411-4.339,11.538-5.514
		c13.628-3.882,27.327-5.343,40.823,0.371c8.776,3.715,15.624,9.538,17.985,19.303c0.803,3.324,2.679,4.454,5.979,4.301
		c7.166-0.332,14.342-0.475,21.516-0.609c2.575-0.049,3.767-1.185,3.921-3.761c0.291-4.852,0.745-9.693,1.099-14.541
		c0.161-2.204,0.908-2.791,2.688-1.136c5.851,5.438,11.694,10.882,17.583,16.278c1.512,1.386,1.5,2.593,0.218,4.15
		c-7.438,9.03-15.215,17.754-23.358,26.153c-1.168,1.205-2.224,1.734-3.237-0.134c-7.188-13.246-19.837-16.347-33.31-18.03
		C131.396,55.875,123.408,56.245,114.942,56.123z"/>
	<path fill-rule="evenodd" clip-rule="evenodd" fill="#161616" d="M50.517,76.473c2.833-0.137,5.423,0.995,8.067,1.546
		c15.583,3.254,31.399,4.341,47.232,5.342c12.13,0.767,24.255,1.636,36.29,3.427c2.422,0.36,4.734,1.066,7.006,1.967
		c2.679,1.063,4.613,2.719,4.681,5.813c0.067,3.118-1.546,5.322-4.242,6.624c-4.631,2.235-9.622,3.339-14.665,4.127
		c-6.88,1.076-13.852,0.962-20.781,1.397c-3.33,0.209-5.713-1.698-7.912-3.782c-5.746-5.448-12.66-7.379-20.391-7.162
		c-4.319,0.122-8.223,1.288-11.535,4.11c-1.57,1.337-2.992,1.653-4.476-0.078c-6.4-7.474-12.814-14.935-19.208-22.414
		C50.467,77.257,50.544,76.958,50.517,76.473z"/>
	<path fill-rule="evenodd" clip-rule="evenodd" fill="#161616" d="M139.534,115.28c-1.545,3.281-3.357,5.088-5.001,6.953
		c-6.652,7.55-13.415,15.002-20.113,22.511c-1.22,1.368-2.275,2.219-3.92,0.421c-8.667-9.472-17.577-18.728-25.519-28.84
		c-0.402-0.512-1.039-0.977-0.573-2.209C102.267,119.894,120.4,120.024,139.534,115.28z"/>
	<path fill-rule="evenodd" clip-rule="evenodd" fill="#151515" d="M40.922,66.238c-2.208-0.864-3.271-2.422-4.473-3.775
		C32.682,58.222,29,53.905,25.221,49.675c-1.307-1.463-1.512-2.691-0.023-4.167c7.4-7.334,14.756-14.713,22.135-22.069
		c1.017-1.014,2.25-1.707,3.695-1.72c4.949-0.045,9.898-0.018,15.308-0.018c-0.865,2.199-2.398,3.054-3.656,4.098
		c-4.812,3.996-9.639,7.962-13.568,12.891c-6.03,7.563-9.085,16.039-8.067,25.802C41.091,64.931,40.987,65.385,40.922,66.238z"/>
	<path fill-rule="evenodd" clip-rule="evenodd" fill="#171717" d="M150.18,21.391c0.346,0,0.697-0.043,1.036,0.007
		c2.108,0.317,4.909-0.98,5.827,2.217c0.624,2.174-2.221,7.323-4.288,8.233c-1.367,0.602-2.196-0.137-2.972-1.045
		c-1.721-2.017-3.405-4.066-5.127-6.082c-1.727-2.022-1.209-3.071,1.375-3.185c1.38-0.061,2.766-0.011,4.148-0.011
		C150.18,21.481,150.18,21.436,150.18,21.391z"/>
</g>
<g id="Capa_1">
	<path fill-rule="evenodd" clip-rule="evenodd" fill="#F2FF35" d="M180.284,51.382c1.67-2.121,0.847-4.652,1.072-6.99
		c0.277-2.87,0.22-5.772,0.323-8.66c0.008-0.208,0.153-0.41,0.48-1.233c4.465,4.029,8.779,7.902,13.064,11.808
		c0.799,0.728,0.352,1.455-0.226,2.108c-6.565,7.424-13.13,14.85-19.674,22.252c-6.938-10.676-17.681-14.068-28.913-16.343
		c-5.991-1.213-12.112-1.866-18.274-1.515c-5.921,0.286-11.844,0.726-17.749-0.23c-8.755-0.739-17.595-0.561-26.23-2.577
		c-3.084-0.72-6.032-1.623-8.378-3.899c-3.486-3.385-3.368-7.947,0.225-11.248c4.951-4.551,10.999-6.689,17.391-8.172
		c10.235-2.375,20.392-2.602,30.501,0.704c10.469,3.424,17.744,9.847,19.723,21.103c0.456,2.601,1.471,3.291,4.061,3.199
		c7.402-0.263,14.817-0.196,22.228-0.259C173.368,51.822,176.827,51.887,180.284,51.382z"/>
	<path fill-rule="evenodd" clip-rule="evenodd" fill="#F2FF35" d="M59.266,81.99c6.873,0.739,13.019,1.52,19.186,2.04
		c14.3,1.208,28.619,2.211,42.915,3.458c8.417,0.734,16.786,1.909,25.028,3.843c1.832,0.431,3.835,0.899,4.047,3.17
		c0.233,2.51-1.604,3.655-3.661,4.436c-10.589,4.023-21.611,4.822-32.803,4.434c-1.465-0.051-2.255-0.916-3.189-1.795
		c-8.894-8.364-19.571-10.354-31.25-8.613c-2.364,0.353-4.248,1.773-6.114,3.147c-0.764,0.563-1.37,1.209-2.318,0.198
		C67.004,91.939,63.233,87.314,59.266,81.99z"/>
	<path fill-rule="evenodd" clip-rule="evenodd" fill="#F2FF35" d="M94.126,120.666c11.778,1.658,23.58,2.303,35.867,1.176
		c-3.934,5.21-8.349,9.581-12.584,14.099c-4.939,5.27-5.024,5.262-10.075,0.004c-4.553-4.74-9.011-9.57-13.51-14.361
		C93.924,121.277,94.025,120.971,94.126,120.666z"/>
	<path fill-rule="evenodd" clip-rule="evenodd" fill="#F2FF35" d="M36.935,57.553c-2.78-3.314-5.101-6.156-7.512-8.918
		c-0.91-1.042-0.655-1.788,0.149-2.682c6.421-7.14,13.436-13.683,20.451-20.217c2.013-1.875,4.629-0.624,8.14-0.894
		C47.093,33.646,39.679,43.819,36.935,57.553z"/>
	<path fill-rule="evenodd" clip-rule="evenodd" fill="#F2FF34" d="M151.893,27.565c-1.063-0.274-1.669-1.165-1.984-2.059
		c-0.355-1.004,0.682-0.956,1.272-0.979c0.833-0.032,1.993-0.323,1.933,1.118C153.083,26.415,152.758,27.167,151.893,27.565z"/>
</g>
</svg>
